# xmcd
#
# Track frame offsets: 
#        150
#        20733
#        44758
#        75503
#        100840
#        143973
#        174438
#        199828
#        224593
#        260940
#
# Disc length: 3793 seconds
#
# Revision: 3
# Processed by: cddbd v1.5.1PL2 Copyright (c) Steve Scherf et al.
# Submitted via: ExactAudioCopy v0.95b4
#
DISCID=990ecf0a
DTITLE=Various Artist - S.F. Blues Guitar Summit-Vol. 3
DYEAR=1993
DGENRE=Blues
TTITLE0=Train Conductor
TTITLE1=You Know I Love Ya
TTITLE2=Nobody Else's Arms
TTITLE3=Alligator Alley
TTITLE4=I Tried
TTITLE5=Runnin' On Fumes
TTITLE6=Take It Like A Man
TTITLE7=You Got Something
TTITLE8=The Wrong Bed
TTITLE9=You Gotta Roll
EXTD=YEAR:1993 Blues Bureau International/Roadrunner Records
EXTT0=Johnny Nitro, Kevin Russel, Tom Castro
EXTT1=Johnny Nitro, Kevin Russel, Tom Castro
EXTT2=Johnny Nitro, Kevin Russel, Tom Castro
EXTT3=Johnny Nitro, Kevin Russel, Tom Castro
EXTT4=Johnny Nitro, Kevin Russel, Tom Castro
EXTT5=Johnny Nitro, Kevin Russel, Tom Castro
EXTT6=Johnny Nitro, Kevin Russel, Tom Castro
EXTT7=Johnny Nitro, Kevin Russel, Tom Castro
EXTT8=Johnny Nitro, Kevin Russel, Tom Castro
EXTT9=Johnny Nitro, Kevin Russel, Tom Castro
PLAYORDER=
